<svg id="logo__mono-on-dark" xmlns="http://www.w3.org/2000/svg" viewBox="0 0 348 83.2"><defs><style>.cls-1{fill:#fff;}</style></defs><title>logo__mono-on-dark</title><g id="text"><path class="cls-1" d="M347.68,60.4l-8.75-15.09A13.6,13.6,0,0,0,333.6,19.2H314.4a2.4,2.4,0,0,0-2.4,2.4v40a2.39,2.39,0,0,0,2.4,2.4H316a2.4,2.4,0,0,0,2.4-2.4V46.4h14l9.52,16.4A2.39,2.39,0,0,0,344,64h1.63a2.4,2.4,0,0,0,2.08-3.6ZM318.4,25.6h15.2a7.2,7.2,0,0,1,0,14.4H318.4Z" transform="translate(0 0)"/><path class="cls-1" d="M298.4,19.2H264.8a2.4,2.4,0,0,0-2.4,2.4v1.6a2.39,2.39,0,0,0,2.4,2.4h13.6v36a2.39,2.39,0,0,0,2.4,2.4h1.6a2.4,2.4,0,0,0,2.4-2.4v-36h13.6a2.4,2.4,0,0,0,2.4-2.4V21.6A2.41,2.41,0,0,0,298.4,19.2Z" transform="translate(0 0)"/><path class="cls-1" d="M263.2,57.6H241.6v-36a2.41,2.41,0,0,0-2.4-2.4h-1.6a2.4,2.4,0,0,0-2.4,2.4v40a2.39,2.39,0,0,0,2.4,2.4h25.6a2.4,2.4,0,0,0,2.4-2.4V60A2.41,2.41,0,0,0,263.2,57.6Z" transform="translate(0 0)"/><path class="cls-1" d="M222.4,21.6a2.41,2.41,0,0,0-2.4-2.4h-1.6a2.4,2.4,0,0,0-2.4,2.4V46.4a12,12,0,1,1-24,0V21.6a2.41,2.41,0,0,0-2.4-2.4H188a2.4,2.4,0,0,0-2.4,2.4V46.4a18.4,18.4,0,1,0,36.8,0Z" transform="translate(0 0)"/><path class="cls-1" d="M173.6,19.2h-1.51a2.38,2.38,0,0,0-2.23,1.51L156,55.35,142.14,20.71a2.39,2.39,0,0,0-2.23-1.51H138.4a2.4,2.4,0,0,0-2.23,3.29l16,40A2.39,2.39,0,0,0,154.4,64h3.2a2.39,2.39,0,0,0,2.23-1.51l16-40a2.4,2.4,0,0,0-2.23-3.29Z" transform="translate(0 0)"/></g><g id="sygnet"><path class="cls-1" d="M.74,7.36A4.8,4.8,0,0,1,4.8,0H29.39a4.78,4.78,0,0,1,4.06,2.24l34.1,54.1a4.8,4.8,0,0,1,0,5.12L55.26,81a4.8,4.8,0,0,1-8.12,0Z" transform="translate(0 0)"/><path class="cls-1" d="M74.85,37A4.8,4.8,0,0,0,83,37L87.2,30.3l8.06-12.79a4.8,4.8,0,0,0,0-5.12L88.86,2.24A4.78,4.78,0,0,0,84.8,0H60.21a4.8,4.8,0,0,0-4.06,7.36Z" transform="translate(0 0)"/></g></svg>